<?xml version="1.0" standalone="no"?><!DOCTYPE svg PUBLIC "-//W3C//DTD SVG 1.1//EN" "http://www.w3.org/Graphics/SVG/1.1/DTD/svg11.dtd"><svg t="1574673298897" class="icon" viewBox="0 0 1024 1024" version="1.1" xmlns="http://www.w3.org/2000/svg" p-id="19105" xmlns:xlink="http://www.w3.org/1999/xlink" width="200" height="200"><defs><style type="text/css"></style></defs><path d="M512.1 218.8m-120.4 0a120.4 120.4 0 1 0 240.8 0 120.4 120.4 0 1 0-240.8 0Z" p-id="19106" fill="#2c2c2c"></path><path d="M83.1 2.8v1020.9H941V2.8H83.1zM110.2 30h803.6v391H110.2V30z m10.9 575.6H253c4.7-33.5 33.3-59.2 68.1-59.2s63.4 25.8 68.1 59.2H903c6 0 10.9 4.9 10.9 10.9s-4.9 10.9-10.9 10.9H388.8c-5.7 32.2-33.8 56.7-67.7 56.7s-62-24.5-67.7-56.7H121.1c-6 0-10.9-4.9-10.9-10.9 0-6.1 4.9-10.9 10.9-10.9z m781.9 228H801.5c-5.7 32.2-33.8 56.7-67.7 56.7-33.9 0-62-24.5-67.7-56.7h-545c-6 0-10.9-4.9-10.9-10.9s4.9-10.9 10.9-10.9h544.6c4.7-33.5 33.3-59.2 68.1-59.2 34.7 0 63.4 25.8 68.1 59.2H903c6 0 10.9 4.9 10.9 10.9s-4.9 10.9-10.9 10.9z" p-id="19107" fill="#2c2c2c"></path></svg>