<?xml version="1.0" standalone="no"?><!DOCTYPE svg PUBLIC "-//W3C//DTD SVG 1.1//EN" "http://www.w3.org/Graphics/SVG/1.1/DTD/svg11.dtd"><svg t="1574907409254" class="icon" viewBox="0 0 1024 1024" version="1.1" xmlns="http://www.w3.org/2000/svg" p-id="14739" xmlns:xlink="http://www.w3.org/1999/xlink" width="200" height="200"><defs><style type="text/css"></style></defs><path d="M450.666667 778.666667l122.666667 0c23.573333 0 42.666667-19.093333 42.666667-42.666667l0-597.333333c0-23.573333-19.114667-42.666667-42.666667-42.666667l-122.666667 0c-23.573333 0-42.666667 19.093333-42.666667 42.666667l0 597.333333C408 759.552 427.093333 778.666667 450.666667 778.666667zM864 288l-122.666667 0c-23.573333 0-42.666667 19.114667-42.666667 42.666667l0 405.333333c0 23.573333 19.093333 42.666667 42.666667 42.666667l122.666667 0c23.573333 0 42.666667-19.093333 42.666667-42.666667l0-405.333333C906.666667 307.114667 887.573333 288 864 288zM885.333333 842.666667l-746.666667 0c-11.776 0-21.333333 9.557333-21.333333 21.333333l0 21.333333c0 11.776 9.557333 21.333333 21.333333 21.333333l746.666667 0c11.776 0 21.333333-9.557333 21.333333-21.333333l0-21.333333C906.666667 852.224 897.109333 842.666667 885.333333 842.666667zM160 778.666667l122.666667 0c23.552 0 42.666667-19.093333 42.666667-42.666667l0-192c0-23.573333-19.114667-42.666667-42.666667-42.666667L160 501.333333c-23.573333 0-42.666667 19.093333-42.666667 42.666667l0 192C117.333333 759.552 136.426667 778.666667 160 778.666667z" p-id="14740" fill="#ffffff"></path></svg>