<?xml version="1.0" standalone="no"?><!DOCTYPE svg PUBLIC "-//W3C//DTD SVG 1.1//EN" "http://www.w3.org/Graphics/SVG/1.1/DTD/svg11.dtd"><svg t="1574907328840" class="icon" viewBox="0 0 1024 1024" version="1.1" xmlns="http://www.w3.org/2000/svg" p-id="12126" xmlns:xlink="http://www.w3.org/1999/xlink" width="200" height="200"><defs><style type="text/css"></style></defs><path d="M790.09143067 596.53979492c-22.98889161 0-44.12384033 10.01129151-58.58459473 25.58441162l-103.82080078-62.66326904c7.41577148-14.83154297 11.4944458-31.51702881 11.4944458-49.31488037 0-17.42706299-4.07867432-33.74176026-11.12365723-48.57330322l84.9105835-43.38226318c14.83154297 16.68548584 35.9664917 27.06756592 60.06774902 27.06756591 44.49462891 0 80.4611206-35.9664917 80.4611206-80.4611206s-35.9664917-80.4611206-80.4611206-80.46112061-80.4611206 35.9664917-80.4611206 80.46112061a81.24759794 81.24759794 0 0 0 5.19104003 28.55072021l-85.28137206 43.75305176c-21.13494873-24.84283448-52.28118896-40.04516602-86.76452638-40.04516601-2.59552002 0-5.19104004 0.37078857-7.78656005 0.37078857l-27.06756592-97.51739502c28.92150879-12.23602295 49.68566895-40.78674317 49.68566894-74.15771485 0-44.49462891-35.9664917-80.83190918-80.4611206-80.83190918S379.62847901 180.88580322 379.62847901 225.38043213 415.5949707 306.21234131 460.08959961 306.21234131h2.22473145l27.06756591 97.14660645c-33.0001831 11.4944458-59.32617188 37.82043458-70.4498291 71.19140625l-103.82080078-21.13494874v-1.85394287c0-44.49462891-35.9664917-80.4611206-80.46112061-80.4611206S153.8182373 407.06683349 153.8182373 451.19067383s35.9664917 80.4611206 80.46112061 80.4611206c33.37097168 0 62.29248047-20.76416016 74.52850342-49.68566894l104.56237793 21.13494873c0 2.22473145-0.37078857 4.44946289-0.37078858 6.67419434 0 24.10125732 7.78656006 46.71936036 20.76416016 65.25878905l-72.30377197 63.03405762C346.99908447 623.23657227 326.60571289 613.96685791 303.98760987 613.96685791c-44.49462891 0-80.4611206 35.9664917-80.46112062 80.46112061s35.9664917 80.4611206 80.46112062 80.4611206 80.4611206-35.9664917 80.4611206-80.4611206c0-11.12365723-2.22473145-21.87652588-6.67419434-31.51702881l75.64086915-66.00036622c19.65179443 16.31469727 44.86541748 26.32598877 72.30377196 26.32598878 2.96630859 0 5.93261719-0.37078857 8.89892578-0.37078858l24.84283448 106.04553223c-24.4720459 13.71917724-41.15753174 40.04516602-41.15753174 70.07904053 0 44.49462891 35.9664917 80.4611206 80.46112061 80.4611206s80.4611206-35.9664917 80.4611206-80.46112061-35.9664917-80.4611206-80.4611206-80.4611206c-4.07867432 0-7.78656006 0.37078857-11.4944458 0.74157715l-23.73046875-102.70843507c18.53942872-6.67419434 34.85412598-17.79785156 47.83172607-32.62939452l104.19158935 63.03405762c-3.70788575 9.26971435-5.93261719 19.65179443-5.93261718 30.40466309 0 44.49462891 35.9664917 80.4611206 80.46112061 80.4611206s80.4611206-35.9664917 80.4611206-80.46112061S834.58605957 596.53979492 790.09143067 596.53979492z m-17.42706299-283.2824707c28.17993164 0 51.16882325 22.98889161 51.16882324 51.16882325s-22.98889161 51.16882325-51.16882324 51.16882323c-28.17993164 0-51.16882325-22.98889161-51.16882325-51.16882324s22.98889161-51.16882325 51.16882325-51.16882324zM408.92077636 225.7512207c0-28.17993164 22.98889161-51.16882325 51.16882325-51.16882324 28.17993164 0 51.16882325 22.98889161 51.16882325 51.16882324s-22.98889161 51.16882325-51.16882325 51.16882325c-28.17993164 0-51.16882325-22.98889161-51.16882324-51.16882325zM234.27935791 502.35949707c-28.17993164 0-51.16882325-22.98889161-51.16882324-51.16882324 0-28.17993164 22.98889161-51.16882325 51.16882324-51.16882324 28.17993164 0 51.16882325 22.98889161 51.16882324 51.16882324 0 28.55072021-22.98889161 51.16882325-51.16882324 51.16882324z m69.33746338 243.23730469c-28.17993164 0-51.16882325-22.98889161-51.16882324-51.16882324 0-28.17993164 22.98889161-51.16882325 51.16882324-51.16882325s51.16882325 22.98889161 51.16882324 51.16882325c0 28.17993164-22.98889161 51.16882325-51.16882324 51.16882323z m346.68731689 53.02276611c0 28.17993164-22.98889161 51.16882325-51.16882324 51.16882325-28.17993164 0-51.16882325-22.98889161-51.16882324-51.16882325 0-28.17993164 22.98889161-51.16882325 51.16882324-51.16882324 28.17993164 0 51.16882325 22.98889161 51.16882324 51.16882324zM525.71917724 593.57348633c-46.34857177 0-83.79821778-37.44964599-83.79821776-83.79821778s37.44964599-83.79821778 83.79821776-83.79821777 83.79821778 37.44964599 83.79821778 83.79821778S572.06774903 593.57348633 525.71917724 593.57348633zM790.09143067 728.16973877c-28.17993164 0-51.16882325-22.98889161-51.16882325-51.16882325 0-28.17993164 22.98889161-51.16882325 51.16882324-51.16882323 28.17993164 0 51.16882325 22.98889161 51.16882325 51.16882323 0 28.17993164-22.98889161 51.16882325-51.16882325 51.16882325z" p-id="12127" fill="#ffffff"></path></svg>