<?xml version="1.0" standalone="no"?><!DOCTYPE svg PUBLIC "-//W3C//DTD SVG 1.1//EN" "http://www.w3.org/Graphics/SVG/1.1/DTD/svg11.dtd"><svg t="1574907360009" class="icon" viewBox="0 0 1024 1024" version="1.1" xmlns="http://www.w3.org/2000/svg" p-id="12932" xmlns:xlink="http://www.w3.org/1999/xlink" width="200" height="200"><defs><style type="text/css"></style></defs><path d="M308.92 815.71A116 116 0 0 1 195 911.43a117.15 117.15 0 0 1-20.53-1.81 116 116 0 1 1 134.47-93.91zM914.51 563.92c-0.73 0.63-1.48 1.26-2.23 1.86l-0.54 0.44 0.62-0.53 2.09-1.78zM775.58 356.49a130.86 130.86 0 0 0 11.09-11.26z m-4.21 3.6q2-1.59 3.86-3.3zM410.2 648c-0.57 0.58-1.15 1.16-1.75 1.72l-0.1-0.1 0.48-0.45z" p-id="12933" fill="#ffffff"></path><path d="M441.09 567.25A113.74 113.74 0 1 1 327.34 453.5a113.87 113.87 0 0 1 113.75 113.75zM583.09 795.25A113.74 113.74 0 1 1 469.34 681.5a113.87 113.87 0 0 1 113.75 113.75zM916.25 584.2a128.14 128.14 0 0 0 11.09-11.27z m-4.25 3.6c1.32-1.06 2.6-2.17 3.87-3.3z m2.44-23.92l-2.09 1.78-0.07 0.08c0.75-0.6 1.5-1.23 2.23-1.86z" p-id="12934" fill="#ffffff"></path><path d="M550.87 875.71c-0.57 0.58-1.15 1.16-1.74 1.72l-0.11-0.11 0.48-0.44zM795.14 185a130.43 130.43 0 0 0-158.66-45 132.31 132.31 0 0 0-22.86 12.78q-5.11 3.58-9.82 7.58l-0.94 0.8-355 303.62a131 131 0 0 1 178.32 190.55l344.91-295 0.28-0.24 3.86-3.3 0.35-0.3 11.09-11.26a127.12 127.12 0 0 0 11.52-15.36A130.67 130.67 0 0 0 795.14 185zM935.81 412.72a130.44 130.44 0 0 0-158.65-45 132.08 132.08 0 0 0-22.87 12.79 123.61 123.61 0 0 0-9.81 7.58l-0.94 0.79-352.77 301.67a131 131 0 0 1 174.28 194L911.77 588l0.27-0.23 3.87-3.3 0.34-0.3 11.09-11.27a126.24 126.24 0 0 0 11.52-15.35 130.67 130.67 0 0 0-3.05-144.86z" p-id="12935" fill="#ffffff"></path></svg>