<?xml version="1.0" standalone="no"?><!DOCTYPE svg PUBLIC "-//W3C//DTD SVG 1.1//EN" "http://www.w3.org/Graphics/SVG/1.1/DTD/svg11.dtd"><svg t="1574908094214" class="icon" viewBox="0 0 1024 1024" version="1.1" xmlns="http://www.w3.org/2000/svg" p-id="16303" xmlns:xlink="http://www.w3.org/1999/xlink" width="200" height="200"><defs><style type="text/css"></style></defs><path d="M1006.1 574.1c1.7-41.7-34.1-56.8-34.1-56.8l-198-92.8s0.5-161.1 0-204.4c-0.6-43.7-35.8-58.7-35.8-58.7S581.5 92.2 535 66.8c-24.2-13.3-49.5 0-49.5 0s-147.3 72.3-192.8 92.8c-41.6 18.7-41 58.7-41 58.7v205.1s-129.8 62.2-184.3 86c-52.1 22.7-50.6 70.5-50.6 70.5s0.5 163.7 0 206.3c-0.5 46 37 60.6 37 60.6s125.8 70.5 186 101c44.5 22.5 73.4 0.6 73.4 0.6l197.7-107.9S667.2 922.1 704 947.8c42.7 29.7 71.7 5 71.7 5s174.2-97.9 201.4-111.7c29.1-14.7 29.1-51.1 29.1-51.1s-1.8-174.3-0.1-215.9zM279 655.5l-180.9-88 180.9-88 184.3 87.1L279 655.5z m203.1 130.6L308 882.6V710.3L482.1 627v159.1z m28.6-473.2l-195.8-92.8 195.8-95.9 203.5 95.9-203.5 92.8z m31.2 56.7l172.3-83.3v140.1l-172.3 85.2v-142z m205.6 285.9l-180-88 172.4-88 187.7 88-180.1 88z m198.8 136.3l-170.7 90.8V710.3L946.3 627v164.8z m0 0" p-id="16304" fill="#ffffff"></path></svg>