<?xml version="1.0" standalone="no"?><!DOCTYPE svg PUBLIC "-//W3C//DTD SVG 1.1//EN" "http://www.w3.org/Graphics/SVG/1.1/DTD/svg11.dtd"><svg t="1574907436368" class="icon" viewBox="0 0 1024 1024" version="1.1" xmlns="http://www.w3.org/2000/svg" p-id="15509" xmlns:xlink="http://www.w3.org/1999/xlink" width="200" height="200"><defs><style type="text/css"></style></defs><path d="M182.4 207.7v124.6c0 10.5 8.6 18.9 19.3 18.9h611.2c10.6 0 19.2-8.5 19.2-18.9V207.7c0-10.4-8.6-18.9-19.2-18.9H201.7c-10.6-0.1-19.3 8.4-19.3 18.9z m774.2 239.6c0-10.4-8.6-18.9-19.3-18.9H201.7c-10.6 0-19.3 8.5-19.3 18.9v124.6c0 10.4 8.6 18.9 19.3 18.9h735.8c10.7 0 19.3-8.5 19.3-18.9l-0.2-124.6zM686.3 687c0-10.4-8.6-18.9-19.2-18.9H201.7c-10.6 0-19.3 8.5-19.3 18.9v124.6c0 10.4 8.6 18.9 19.3 18.9h465.5c10.6 0 19.2-8.5 19.2-18.9V687zM131.8 924.8V98.9c0-17.4-14.3-31.5-32-31.5s-32 14.1-32 31.5v825.9c0 17.4 14.3 31.5 32 31.5s32-14 32-31.5z m0 0" p-id="15510" fill="#ffffff"></path></svg>