<?xml version="1.0" standalone="no"?><!DOCTYPE svg PUBLIC "-//W3C//DTD SVG 1.1//EN" "http://www.w3.org/Graphics/SVG/1.1/DTD/svg11.dtd"><svg t="1574907076714" class="icon" viewBox="0 0 1024 1024" version="1.1" xmlns="http://www.w3.org/2000/svg" p-id="9458" xmlns:xlink="http://www.w3.org/1999/xlink" width="200" height="200"><defs><style type="text/css"></style></defs><path d="M761.7 671.9c-46.4-18.2-103.2-30.6-165.1-36.5l14.1-139h32.5c13.2 0 23.9-10.7 23.9-23.9l-33-215.8c0-13.2-10.7-23.9-23.9-23.9h-54.7l-41.9 30-48.5-30h-50c-13.2 0-23.9 10.7-23.9 23.9l-31 215.8c0 13.2 10.7 23.9 23.9 23.9h32.5l14.1 139c-61.9 5.9-118.7 18.4-165.1 36.5-70.9 27.8-110 66.5-110 109s39.1 81.2 110 109c66.5 26.1 154.6 40.4 248.1 40.4s181.6-14.4 248.1-40.4c70.9-27.8 110-66.5 110-109s-39.1-81.2-110.1-109z m-319.2 81.4c0 12.3 11.5 22.2 25.7 22.2H559c14.2 0 25.7-9.9 25.7-22.2l3.3-33.1c19.1 3.4 36.7 8.1 51.9 14.1 27.8 10.9 45.1 25.3 45.1 37.7 0 12.3-17.3 26.8-45.1 37.7-33.5 13.1-78.4 20.4-126.3 20.4-48 0-92.8-7.2-126.3-20.4-27.8-10.9-45.1-25.3-45.1-37.7 0-12.3 17.3-26.8 45.1-37.7 15.2-6 32.8-10.7 51.9-14.1l3.3 33.1z m308.3 108.8c-63.1 24.7-147.3 38.3-237.1 38.3-89.8 0-174-13.6-237.1-38.3-57.8-22.7-91-52.2-91-81.1s33.2-58.5 91-81.1c43.9-17.2 98-29 157.2-34.6l2.5 25c-22 3.8-42.2 9.2-59.8 16.1-41.3 16.2-64.1 39.5-64.1 65.6s22.8 49.4 64.1 65.6C413.2 852 462 860 513.6 860s100.4-8 137.3-22.4c41.3-16.2 64.1-39.5 64.1-65.6s-22.8-49.4-64.1-65.6c-17.6-6.9-37.8-12.3-59.8-16.1l2.5-25c59.1 5.6 113.3 17.4 157.2 34.6 57.8 22.7 91 52.2 91 81.1s-33.2 58.4-91 81.1z" p-id="9459" fill="#ffffff"></path><path d="M464.554081 199.973887a69.4 69.4 0 1 0 98.144709-98.148135 69.4 69.4 0 1 0-98.144709 98.148135Z" p-id="9460" fill="#ffffff"></path></svg>