<?xml version="1.0" standalone="no"?><!DOCTYPE svg PUBLIC "-//W3C//DTD SVG 1.1//EN" "http://www.w3.org/Graphics/SVG/1.1/DTD/svg11.dtd"><svg t="1574907307480" class="icon" viewBox="0 0 1024 1024" version="1.1" xmlns="http://www.w3.org/2000/svg" p-id="11851" xmlns:xlink="http://www.w3.org/1999/xlink" width="200" height="200"><defs><style type="text/css"></style></defs><path d="M336 804.8v-91.2l176 123.2L336 960v-89.6C172 826.4 57.6 724 57.6 600.8c0-56.8 24.8-110.4 69.6-156.8 12-12.8 32-13.6 44.8-0.8 12.8 12 13.6 32 0.8 44.8l-0.8 0.8c-33.6 34.4-51.2 72.8-51.2 112 0 85.6 85.6 164.8 215.2 204z m280 80c-17.6 3.2-33.6-8.8-36.8-25.6-3.2-17.6 8.8-33.6 25.6-36.8 0.8 0 0.8 0 2.4-0.8C781.6 795.2 904 701.6 904 600c0-37.6-16-74.4-47.2-108-12-12.8-11.2-32.8 1.6-44.8 12.8-12 32.8-11.2 44.8 1.6C944.8 493.6 968 545.6 968 600c-0.8 140.8-149.6 255.2-352 284.8zM512 678.4L265.6 528.8v-300L512 79.2l247.2 149.6v300L512 678.4z m188.8-180V307.2L540.8 408v192l160-101.6z m-377.6 0l160 101.6V398.4l-160-99.2v199.2zM512 139.2L346.4 244 516 348.8h6.4l160.8-101.6-171.2-108z" p-id="11852" fill="#ffffff"></path></svg>