<?xml version="1.0" standalone="no"?><!DOCTYPE svg PUBLIC "-//W3C//DTD SVG 1.1//EN" "http://www.w3.org/Graphics/SVG/1.1/DTD/svg11.dtd"><svg t="1574907244738" class="icon" viewBox="0 0 1024 1024" version="1.1" xmlns="http://www.w3.org/2000/svg" p-id="10222" xmlns:xlink="http://www.w3.org/1999/xlink" width="200" height="200"><defs><style type="text/css"></style></defs><path d="M742.441393 287.157115l0 220.85506c0-4.201695-17.396205-6.503111-17.396205-6.493901L725.045187 191.989639c0-76.747965-113.586988-76.747965-113.586988 0l0 291.874557c0-1.443885 0-2.336208-20.466124-2.248204l0-329.535295c0-73.678046-110.517069-73.678046-110.517069 0l0 323.939857c0-0.735757 0-0.788969-20.466124 0.1361L460.008882 209.385844c0-73.678046-113.586988-73.678046-113.586988 0l0 401.426649c-17.396205-38.408775-73.541947-107.97927-109.63191-107.97927-49.806359 0-96.320743 49.806359-13.311167 132.815935s141.54269 218.429825 217.470987 265.63187c84.156702 52.317553 211.874525 52.317553 287.360753 14.57495s127.717823-113.227808 127.717823-188.714036c0-16.59291 0-8.498558 0-25.084305l0-414.899498C856.028381 209.385844 742.441393 209.385844 742.441393 287.157115z" p-id="10223" fill="#ffffff"></path></svg>