<?xml version="1.0" standalone="no"?><!DOCTYPE svg PUBLIC "-//W3C//DTD SVG 1.1//EN" "http://www.w3.org/Graphics/SVG/1.1/DTD/svg11.dtd"><svg t="1574907267021" class="icon" viewBox="0 0 1024 1024" version="1.1" xmlns="http://www.w3.org/2000/svg" p-id="10981" xmlns:xlink="http://www.w3.org/1999/xlink" width="200" height="200"><defs><style type="text/css"></style></defs><path d="M947 142.6L716.6 373h73.5c25.6 0 46.3 20.8 46.3 46.3s-20.7 46.3-46.3 46.3H604.7c-25.6 0-46.3-20.7-46.3-46.3V233.9c0-25.6 20.7-46.3 46.3-46.3 25.6 0 46.3 20.7 46.3 46.3v73.5L881.4 77l0.1 0.1C889.8 69 901.1 64 913.7 64c25.6 0 46.3 20.7 46.3 46.3 0 12.6-5 23.9-13 32.3zM604.7 558.3h185.4c25.6 0 46.3 20.7 46.3 46.3 0 25.6-20.7 46.3-46.3 46.3h-73.5L947 881.4h-0.1c8.1 8.3 13.1 19.7 13.1 32.2 0 25.6-20.7 46.3-46.3 46.3-12.5 0-23.8-5-32.2-13.1l-0.1 0.1L651 716.6v73.5c0 25.6-20.7 46.3-46.3 46.3-25.6 0-46.3-20.7-46.3-46.3V604.7c-0.1-25.6 20.7-46.4 46.3-46.4zM419.3 836.4c-25.6 0-46.3-20.7-46.3-46.3v-73.5L142.6 947l-0.1-0.1c-8.3 8.1-19.7 13.1-32.2 13.1-25.6 0-46.3-20.7-46.3-46.3 0-12.5 5-23.8 13.1-32.2H77L307.4 651h-73.5c-25.6 0-46.3-20.8-46.3-46.3 0-25.6 20.8-46.3 46.3-46.3h185.4c25.6 0 46.3 20.7 46.3 46.3v185.4c0.1 25.6-20.7 46.3-46.3 46.3z m0-370.7H233.9c-25.6 0-46.3-20.7-46.3-46.3s20.8-46.3 46.3-46.3h73.5L77 142.6l0.1-0.1C69 134.2 64 122.9 64 110.3 64 84.7 84.7 64 110.3 64c12.5 0 23.8 5 32.2 13.1l0.1-0.1L373 307.4v-73.5c0-25.6 20.7-46.3 46.3-46.3s46.3 20.7 46.3 46.3v185.4c0.1 25.6-20.7 46.4-46.3 46.4z" p-id="10982" fill="#ffffff"></path></svg>